<?xml version="1.0" standalone="no"?>
<!DOCTYPE svg PUBLIC "-//W3C//DTD SVG 20010904//EN"
 "http://www.w3.org/TR/2001/REC-SVG-20010904/DTD/svg10.dtd">
<svg version="1.0" xmlns="http://www.w3.org/2000/svg"
 width="955.000000pt" height="960.000000pt" viewBox="0 0 955.000000 960.000000"
 preserveAspectRatio="xMidYMid meet">
<metadata>
Created by potrace 1.16, written by Peter Selinger 2001-2019
</metadata>
<g transform="translate(0.000000,960.000000) scale(0.100000,-0.100000)"
fill="#000000" stroke="none">
<path d="M0 7505 l0 -2095 168 0 c114 0 172 4 180 12 8 8 15 8 26 -1 11 -9 20
-10 36 -1 11 6 53 10 94 9 71 -2 121 11 97 25 -16 10 -14 26 3 26 8 0 22 7 30
16 9 8 16 11 16 5 0 -16 19 -13 37 5 9 8 22 13 30 10 7 -3 16 1 19 9 7 16 -49
75 -72 75 -9 0 -22 7 -30 15 -9 8 -25 15 -37 15 -31 0 -77 56 -77 93 0 35 100
111 150 115 19 2 54 12 77 23 24 10 52 19 64 19 12 0 23 8 26 20 3 11 9 20 14
20 5 0 9 19 9 43 0 24 6 49 12 55 10 10 10 17 0 32 -6 11 -12 24 -12 30 0 6
-9 30 -21 55 -34 71 -13 111 81 157 50 25 67 27 190 30 75 2 168 -3 210 -9 41
-7 177 -14 302 -15 125 -2 228 -6 228 -10 0 -4 11 3 24 15 57 52 185 135 227
147 50 15 151 12 199 -5 53 -19 55 -19 40 0 -11 13 -10 14 1 10 8 -4 25 -20
38 -37 24 -30 24 -30 3 -19 -12 6 -22 16 -22 22 0 6 -4 8 -8 5 -4 -3 -28 0
-51 5 -67 15 -73 5 -8 -16 32 -10 55 -20 53 -23 -3 -2 -41 1 -85 7 -104 14
-165 2 -239 -46 -31 -20 -63 -36 -70 -34 -7 1 -30 -14 -50 -34 -39 -38 -113
-78 -170 -90 -34 -7 -86 -45 -226 -167 -17 -15 -34 -28 -37 -28 -3 0 -16 -9
-29 -20 -13 -11 -33 -20 -46 -20 -14 0 -22 -5 -19 -12 2 -7 -14 -25 -36 -41
l-40 -27 36 -31 c19 -17 35 -36 35 -42 0 -6 -10 -1 -23 11 -13 12 -29 22 -36
22 -18 0 -41 26 -41 45 0 9 4 14 9 11 5 -3 14 1 21 9 7 8 18 15 24 15 6 0 17
9 24 21 13 20 12 21 -17 14 -33 -7 -92 -34 -101 -45 -3 -3 -25 -14 -50 -24
-25 -9 -65 -31 -90 -48 -44 -30 -156 -153 -178 -194 -11 -20 -114 -104 -128
-104 -4 0 -24 -17 -45 -37 -256 -256 -352 -339 -361 -311 -3 9 -58 -63 -58
-76 0 -3 -17 -32 -38 -65 -21 -32 -47 -85 -57 -117 -18 -56 -18 -62 -1 -123 9
-36 30 -86 47 -112 57 -89 445 -451 583 -544 33 -22 163 -122 190 -146 5 -5
-6 -4 -26 1 -38 11 -592 41 -855 47 l-163 4 0 -1101 0 -1100 149 0 c81 0 172
-5 202 -10 75 -14 937 -15 981 -1 33 10 117 9 278 -6 61 -6 94 -4 120 5 71 26
186 26 315 -2 129 -28 198 -32 242 -15 15 6 37 15 48 19 11 4 33 14 49 21 22
10 70 13 188 12 104 -2 158 1 158 8 0 5 4 8 8 5 15 -9 22 -187 12 -304 -6 -70
-5 -154 1 -225 5 -61 9 -262 9 -446 -1 -290 -4 -359 -25 -525 -13 -105 -26
-225 -30 -266 -3 -41 -8 -87 -11 -102 l-6 -28 1990 0 1989 0 6 73 c20 225 29
470 22 589 -11 205 -10 247 4 327 10 58 16 70 23 57 7 -12 6 -26 -1 -44 -8
-19 -9 -54 -2 -114 7 -74 13 -93 40 -129 17 -24 31 -48 31 -54 0 -44 35 -118
71 -152 37 -34 40 -41 34 -73 -18 -96 -1 -163 56 -224 22 -22 39 -45 39 -51 0
-5 -18 -37 -40 -70 -29 -43 -40 -70 -40 -98 l0 -37 528 2 527 3 3 33 c3 27 -3
39 -32 66 -41 37 -44 57 -16 93 29 37 47 106 61 236 18 165 1 272 -60 362
l-20 30 46 100 c37 82 46 112 50 174 5 73 4 78 -27 124 -18 26 -53 69 -79 94
-42 42 -46 51 -51 107 -4 38 -1 77 7 104 12 42 7 136 -13 250 -7 39 -5 39 124
17 100 -17 363 -29 697 -29 198 -1 237 -4 280 -20 28 -10 55 -19 60 -20 6 -2
30 -8 55 -15 25 -7 61 -16 80 -21 49 -12 370 -31 398 -24 l22 6 0 1606 0 1606
-30 -31 c-58 -60 -146 -48 -195 26 -34 51 -28 96 20 150 46 51 110 192 125
275 12 66 12 71 -11 115 -13 25 -26 48 -30 51 -3 3 -15 21 -27 41 -17 27 -22
52 -22 100 0 80 20 123 80 167 25 19 55 42 68 53 l22 19 0 408 c0 336 -2 411
-14 428 -30 43 -38 142 -32 399 4 138 9 264 11 280 14 91 36 710 32 905 -3
183 -7 234 -21 272 -22 57 -67 74 -78 28 -4 -21 -98 -46 -363 -96 -181 -34
-252 -44 -355 -50 -58 -3 -112 -8 -120 -11 -8 -3 -58 -9 -110 -14 -52 -4 -129
-13 -170 -19 -41 -6 -140 -13 -220 -15 -153 -5 -213 -10 -295 -26 -27 -5 -133
-16 -235 -24 -272 -22 -495 -43 -580 -54 -83 -11 -201 -50 -228 -74 -23 -21
-27 -85 -9 -129 7 -18 19 -60 26 -93 33 -156 77 -289 110 -328 17 -20 41 -80
46 -117 3 -14 9 -50 15 -80 5 -30 7 -71 4 -90 -14 -92 -29 -150 -40 -150 -14
0 -26 -120 -13 -135 5 -5 9 -37 9 -72 0 -34 6 -82 14 -105 7 -24 21 -79 30
-123 9 -44 24 -107 32 -140 9 -33 18 -73 21 -90 3 -16 10 -38 15 -49 6 -10 12
-111 14 -224 2 -112 6 -208 9 -211 6 -10 -22 -304 -35 -365 -12 -61 -8 -202 8
-236 14 -30 31 -57 52 -81 34 -39 40 -49 40 -57 0 -12 74 -82 87 -82 6 0 16
-7 23 -15 7 -8 29 -15 50 -15 21 0 54 -7 74 -15 20 -8 71 -18 113 -22 89 -7
113 -16 113 -43 0 -10 4 -22 10 -25 5 -3 9 -24 8 -46 -2 -47 2 -52 68 -73 44
-14 95 -16 370 -14 307 3 321 4 379 27 33 12 64 29 68 37 4 8 12 14 17 14 6 0
18 8 28 18 46 43 74 62 92 62 11 0 20 -4 20 -10 0 -28 166 -28 194 1 6 5 18 9
28 9 11 0 37 9 59 21 62 31 90 23 110 -30 9 -25 27 -56 41 -70 29 -30 106 -77
119 -73 10 2 14 -34 10 -82 -6 -67 -138 -136 -260 -136 -25 0 -71 -7 -101 -15
-65 -17 -180 -19 -317 -5 -100 11 -130 8 -338 -33 -38 -7 -142 -15 -230 -17
-175 -5 -197 -5 -460 -2 -132 2 -199 -2 -250 -13 -190 -41 -338 -49 -950 -49
-154 0 -345 0 -424 0 l-144 -1 -16 51 c-17 55 -31 67 -42 37 -5 -12 -8 -6 -8
20 -1 33 5 44 37 73 20 18 40 34 45 34 4 0 7 7 7 15 0 8 4 15 10 15 5 0 12 16
16 35 3 19 10 35 15 35 5 0 10 57 10 128 1 85 4 114 9 87 6 -32 7 -34 9 -12 1
20 8 30 27 37 14 6 29 8 33 5 5 -2 17 2 27 10 10 8 35 15 55 15 41 0 104 23
132 48 18 16 57 95 57 116 0 6 9 28 20 49 17 32 20 56 20 174 0 76 6 190 13
253 8 63 12 191 11 284 -3 184 1 227 40 451 21 120 26 182 25 310 0 247 -16
617 -27 645 -33 84 -43 220 -20 278 31 80 38 137 43 382 3 140 10 282 15 315
17 106 42 338 42 391 0 39 -8 65 -30 104 -26 45 -28 57 -21 90 5 21 10 60 10
87 1 26 11 66 23 87 12 25 23 70 27 120 3 45 15 111 26 149 l20 67 -3193 0
-3194 0 0 -2095z m1169 846 c12 -7 112 -10 258 -9 173 1 273 -3 368 -15 72
-10 168 -22 215 -28 47 -6 116 -17 154 -25 50 -11 167 -16 425 -20 196 -2 381
-6 411 -8 30 -3 91 -5 135 -7 90 -2 133 -22 155 -72 16 -37 7 -107 -17 -124
-10 -8 -26 -20 -36 -28 -9 -8 -20 -15 -23 -15 -3 0 -12 -7 -20 -15 -9 -8 -29
-15 -45 -15 -22 0 -29 -5 -29 -20 0 -24 2 -24 -42 -1 -29 14 -46 16 -85 10
-80 -13 -113 -11 -113 7 0 13 -3 14 -15 4 -18 -15 -45 -6 -45 15 0 8 -4 15
-10 15 -5 0 -10 -5 -10 -10 0 -7 -9 -6 -22 2 -15 8 -63 13 -138 13 -63 0 -118
4 -121 8 -8 12 -174 37 -244 37 -111 1 -155 -9 -155 -36 0 -19 -120 -21 -121
-1 0 10 -2 10 -6 0 -6 -15 -33 -17 -33 -3 0 22 -22 8 -33 -20 -11 -29 -15 -31
-62 -29 -95 3 -340 -13 -346 -22 -10 -16 -111 -8 -158 13 -24 11 -68 28 -98
37 l-54 17 27 13 c29 13 24 24 -13 36 -20 6 -23 3 -23 -24 0 -24 -4 -31 -20
-31 -11 0 -20 -7 -20 -15 0 -18 -3 -19 -105 -21 -44 -1 -106 -6 -138 -12 -46
-8 -63 -8 -85 4 -26 13 -27 13 -30 -11 -2 -14 -10 -25 -18 -25 -16 0 -19 17
-3 22 7 2 2 18 -11 41 -19 32 -21 42 -11 63 20 45 8 83 -46 142 -13 14 -18 88
-7 116 3 9 11 16 18 17 6 0 27 11 46 24 34 23 39 24 208 20 94 -2 181 -9 191
-14z m-151 -470 c15 1 68 -2 117 -5 50 -4 127 -8 173 -10 46 -2 89 -9 95 -15
6 -6 35 -11 64 -11 41 0 53 -3 53 -16 0 -10 6 -13 19 -9 10 3 31 0 47 -6 16
-6 98 -13 184 -15 85 -1 207 -5 270 -8 63 -4 169 -9 235 -12 66 -4 248 -7 405
-8 157 -1 355 -3 440 -5 105 -2 156 1 158 8 2 6 21 11 43 11 21 0 39 5 39 10
0 6 9 10 20 10 11 0 20 -4 20 -10 0 -5 9 -10 20 -10 11 0 20 6 20 14 0 10 15
13 55 12 30 0 49 -3 44 -7 -6 -3 4 -9 23 -13 39 -9 257 -21 308 -17 94 6 543
5 553 -1 8 -5 8 -8 -2 -8 -8 0 -12 -2 -10 -4 3 -3 23 -1 46 4 31 7 50 6 77 -5
32 -14 35 -14 29 2 -5 13 -2 15 18 9 67 -19 80 -19 94 0 12 15 16 16 24 5 6
-9 11 -10 15 -2 9 13 56 15 56 2 0 -5 -10 -12 -22 -14 -13 -2 -4 -4 19 -4 23
0 40 4 37 9 -3 4 1 9 8 9 7 1 31 3 53 4 22 2 45 4 50 5 29 6 85 -1 80 -10 -4
-6 5 -10 22 -9 17 1 21 3 11 6 -10 2 -18 9 -18 14 0 12 17 12 25 -1 9 -14 76
-41 89 -36 6 2 3 5 -6 5 -9 1 -20 6 -24 13 -5 8 -2 9 9 5 10 -3 17 -2 17 4 0
6 24 -8 52 -30 73 -56 85 -68 114 -120 15 -26 36 -54 48 -63 11 -10 16 -18 9
-18 -7 0 -23 10 -38 23 -14 12 -43 36 -65 52 -43 33 -55 55 -15 29 14 -9 25
-12 25 -6 0 32 -174 102 -207 83 -16 -9 -14 -12 17 -25 19 -8 48 -28 64 -44
15 -17 35 -28 42 -25 8 3 14 0 14 -7 0 -6 3 -9 8 -6 4 2 16 -3 27 -11 20 -16
20 -16 0 -9 -11 4 0 -11 24 -33 24 -22 48 -38 52 -35 15 9 49 -6 49 -22 0 -8
5 -14 10 -14 6 0 10 -4 10 -10 0 -5 -7 -7 -15 -4 -8 4 -15 12 -15 19 0 7 -14
12 -31 13 -19 0 -42 11 -58 26 -23 22 -28 23 -36 10 -9 -13 -15 -12 -52 6 -24
11 -43 25 -43 29 0 11 57 -15 65 -30 8 -11 25 -12 25 -1 0 5 -15 16 -32 25
l-33 18 30 -7 30 -6 -39 31 c-21 17 -46 33 -57 36 -10 4 -19 11 -19 16 0 5 -7
9 -16 9 -8 0 -12 5 -9 10 3 6 -1 10 -9 10 -9 0 -15 -5 -13 -11 1 -6 -5 -14
-13 -16 -13 -4 -13 -3 0 6 11 8 12 11 2 11 -8 0 -10 5 -6 12 5 8 2 9 -10 5
-10 -4 -19 -1 -23 9 -8 23 -52 37 -69 23 -20 -16 -9 -26 23 -22 20 3 31 -1 40
-16 12 -19 10 -19 -25 -14 -20 3 -55 16 -77 29 -38 21 -48 22 -185 18 -173 -6
-220 -9 -240 -18 -12 -5 -109 -22 -157 -28 -7 -1 -13 -10 -13 -20 0 -19 -15
-25 -24 -9 -3 4 -31 4 -63 -1 -32 -5 -83 -8 -113 -5 -30 2 -49 2 -42 0 30 -11
7 -22 -53 -25 -36 -1 -65 0 -65 3 0 7 -74 1 -115 -10 -16 -4 -55 -7 -85 -6
-30 2 -95 -1 -145 -6 -49 -5 -112 -11 -140 -13 -27 -2 -63 -9 -78 -15 -24 -10
-434 -18 -577 -13 -25 1 -71 2 -103 3 -32 0 -69 4 -82 9 -18 7 -566 16 -712
11 -24 -1 -43 3 -43 8 0 5 -66 7 -162 4 -90 -3 -239 -6 -333 -6 -155 0 -223 5
-560 45 -49 6 -117 10 -151 9 -42 0 -83 7 -132 24 -40 14 -78 25 -87 25 -8 0
-15 5 -15 10 0 6 -11 10 -24 10 -35 0 -56 10 -56 26 0 8 -11 15 -27 15 l-28 2
28 4 c19 3 27 10 27 24 0 11 4 18 9 15 5 -3 41 6 82 19 40 14 79 25 88 25 8 0
24 9 35 19 25 24 170 46 253 39 30 -3 56 -1 59 4 3 5 11 5 17 0 7 -6 31 -13
55 -17 39 -6 42 -5 42 16 l0 23 15 -21 c10 -14 26 -22 43 -22z m2550 -695 c2
-16 -1 -33 -7 -39 -6 -6 -11 -23 -11 -38 0 -25 -12 -71 -30 -114 -7 -17 -24
-88 -61 -253 -5 -24 -7 -48 -3 -53 17 -28 -32 -82 -101 -112 -18 -8 -16 -10
18 -28 21 -11 43 -19 50 -18 27 3 36 -2 39 -23 4 -26 -22 -88 -46 -108 -9 -7
-14 -20 -11 -29 5 -17 -59 -66 -75 -56 -4 3 -11 -1 -13 -7 -4 -10 -8 -9 -16 2
-9 13 -11 13 -11 -1 0 -10 -15 -20 -37 -27 -79 -23 -86 -23 -116 6 l-29 27 7
-25 c7 -23 6 -24 -9 -11 -9 8 -53 60 -96 116 l-79 103 18 86 18 87 -28 59
c-15 33 -31 60 -34 60 -17 0 -45 -22 -45 -36 0 -10 -7 -13 -25 -8 -19 5 -25 2
-25 -11 0 -9 -4 -14 -9 -11 -17 11 -40 -5 -50 -35 -9 -27 -13 -29 -31 -19 -16
9 -25 8 -36 -1 -8 -7 -11 -15 -6 -18 14 -9 25 -51 13 -51 -5 0 -13 9 -16 20
-7 21 -55 29 -55 9 0 -6 -8 -8 -19 -4 -16 5 -20 -1 -26 -36 -6 -34 -10 -40
-27 -36 -22 6 -129 -19 -138 -32 -3 -5 -20 -12 -37 -16 -18 -3 -33 -10 -33
-14 0 -4 -7 -8 -15 -8 -8 0 -15 1 -15 3 0 1 30 22 68 47 78 51 170 99 227 117
22 7 51 21 65 30 14 10 35 20 47 24 12 4 38 20 58 36 21 17 43 30 50 30 40 0
231 127 331 221 71 66 156 119 271 169 54 23 102 46 108 51 16 15 30 4 33 -25z
m1768 -135 c11 9 14 8 14 -1 0 -8 3 -11 6 -7 7 6 47 -28 116 -98 56 -58 119
-180 172 -332 47 -138 60 -156 102 -149 47 9 306 8 314 -1 4 -4 10 -21 14 -36
6 -24 3 -30 -14 -34 -25 -7 -23 6 -24 -198 -1 -156 -3 -174 -24 -217 -27 -55
-70 -77 -172 -85 -54 -5 -75 -2 -113 15 l-46 21 22 -35 c15 -23 27 -32 37 -27
31 13 91 15 106 2 44 -36 69 -134 55 -214 -11 -65 -55 -237 -89 -350 -23 -78
-27 -108 -27 -222 -1 -90 -5 -137 -13 -145 -7 -7 -12 -20 -12 -30 0 -22 -41
-34 -68 -19 -13 7 -22 7 -29 0 -7 -7 -16 -4 -26 12 -15 20 -17 21 -23 5 -4
-11 -13 -15 -26 -10 -14 4 -18 2 -13 -5 9 -16 -45 -3 -66 15 -17 15 -59 19
-59 5 0 -4 -19 -5 -42 -1 -24 5 -46 6 -49 4 -4 -2 -10 3 -13 12 -5 13 -9 14
-20 5 -11 -10 -17 -8 -25 6 -6 10 -11 14 -11 10 0 -5 -10 -1 -22 7 -12 9 -34
16 -48 16 -26 0 -55 33 -45 50 4 6 0 13 -8 16 -10 4 -14 15 -10 35 3 21 0 29
-11 29 -9 0 -19 12 -22 26 -7 26 -48 74 -64 74 -4 0 -14 14 -22 30 -7 17 -19
30 -27 30 -7 0 -11 6 -8 14 4 10 1 13 -9 9 -8 -3 -14 1 -14 10 0 8 -5 17 -12
19 -8 3 -7 11 4 29 8 13 21 47 28 74 7 28 17 55 22 62 13 17 -1 38 -15 24 -8
-8 -16 -6 -29 6 -11 10 -18 11 -18 5 0 -7 -16 -12 -39 -12 -26 0 -46 -7 -64
-24 -19 -17 -28 -21 -37 -12 -13 13 -33 -11 -25 -31 2 -7 0 -13 -6 -13 -6 0
-9 -8 -7 -17 1 -10 -1 -24 -5 -30 -12 -19 -58 -16 -73 5 -13 16 -13 16 -14 0
0 -10 -5 -18 -11 -18 -6 0 -8 11 -5 28 3 15 2 34 -4 42 -8 12 -10 10 -10 -10
0 -31 -57 -63 -85 -47 -15 8 -15 10 2 23 16 12 16 15 3 27 -9 6 -14 20 -12 30
5 23 -24 67 -43 67 -14 0 -18 9 -13 28 1 4 8 6 15 4 8 -2 13 7 13 23 0 30 -15
33 -32 5 -7 -11 -19 -20 -26 -20 -7 0 -10 5 -6 12 4 6 -2 18 -12 25 -18 14
-17 14 13 8 19 -4 34 -2 38 5 10 16 3 20 -38 22 -21 1 -38 7 -41 15 -3 8 -10
11 -16 8 -5 -3 -10 -1 -10 5 0 7 7 9 16 6 13 -5 14 1 8 42 -8 59 -10 61 -19
23 -10 -45 -50 -39 -58 9 -2 14 -6 32 -10 40 -12 32 -15 60 -6 60 4 0 7 23 5
50 -2 28 0 53 5 56 16 10 9 23 -8 17 -17 -6 -17 -6 -1 10 9 9 21 17 26 17 5 0
15 7 23 16 54 66 227 75 260 13 5 -10 16 -19 24 -19 8 0 23 -8 33 -18 11 -11
33 -22 50 -25 30 -6 46 -17 96 -64 24 -24 42 -31 31 -13 -3 6 -4 10 -2 10 2 0
16 -19 31 -43 18 -28 45 -52 79 -70 61 -32 67 -32 153 -11 36 9 67 14 69 12 6
-6 -85 -166 -128 -225 -16 -23 -34 -40 -40 -36 -6 3 -7 1 -3 -5 4 -6 -1 -23
-10 -37 -25 -38 -20 -99 13 -150 15 -25 31 -45 36 -45 10 0 9 38 -1 44 -14 8
-12 66 1 66 7 0 28 -11 48 -24 56 -39 108 -66 124 -66 8 0 15 -5 15 -10 0 -6
3 -9 8 -9 19 3 33 -2 28 -10 -8 -13 16 -29 65 -44 34 -10 54 -11 89 -2 61 15
43 25 -109 59 -59 13 -81 36 -35 36 l27 0 -21 23 c-12 13 -22 33 -22 45 0 17
8 22 38 27 20 3 53 10 72 14 19 5 70 9 113 10 43 1 93 9 112 17 19 8 37 14 40
14 3 0 5 -20 5 -45 0 -25 5 -45 10 -45 6 0 10 6 10 13 0 8 11 24 24 36 24 23
24 23 35 3 6 -12 11 -28 11 -36 0 -9 5 -16 10 -16 6 0 10 5 10 11 0 6 8 23 18
37 40 57 47 118 29 233 -2 9 -13 29 -25 44 -12 16 -25 39 -28 52 -5 19 -9 21
-21 12 -16 -14 -15 -149 2 -161 15 -12 -13 -10 -36 2 -10 6 -19 17 -19 25 0 8
-5 15 -11 15 -6 0 -8 -8 -5 -17 6 -17 5 -17 -7 -1 -9 11 -22 14 -41 11 -38 -8
-27 10 16 28 51 20 65 49 24 49 -14 0 -28 5 -32 11 -4 7 -49 9 -145 5 -92 -5
-146 -3 -159 4 -25 14 -26 51 -1 81 15 19 29 24 68 24 61 0 81 11 56 31 -22
16 -57 18 -84 4 -17 -10 -18 -8 -9 12 21 50 50 179 52 235 2 63 12 93 31 93 7
0 36 -35 64 -77 58 -86 92 -131 93 -122 0 6 -21 54 -81 187 -17 39 -22 42 -56
42 -21 0 -43 -4 -49 -8 -7 -4 -15 -38 -19 -77 -7 -71 -34 -199 -42 -192 -2 2
2 28 8 58 6 29 9 92 7 140 -6 98 -19 124 -79 158 -90 51 -407 4 -433 -64 -21
-56 12 -236 65 -354 41 -93 65 -106 178 -98 110 8 172 29 211 73 34 40 41 33
7 -7 -42 -50 -136 -80 -252 -81 -51 0 -74 4 -94 19 -37 26 -85 130 -116 248
-38 146 -48 165 -85 165 -26 0 -31 5 -36 30 -4 17 -10 30 -14 30 -4 0 -48 -20
-99 -45 -50 -25 -97 -45 -104 -45 -7 0 -24 -6 -39 -14 -48 -25 -199 -78 -205
-72 -4 3 -1 6 5 6 7 0 12 5 12 11 0 6 -10 8 -22 5 -13 -3 -17 -3 -9 0 11 5 11
8 0 15 -11 7 -11 9 -1 9 7 0 10 5 6 12 -4 6 1 17 11 25 11 7 13 13 6 13 -7 0
-9 5 -4 13 4 6 9 21 10 32 2 11 8 35 14 54 8 25 14 30 20 20 6 -10 11 -11 17
-3 4 6 15 13 24 17 9 3 24 23 34 44 10 21 26 46 36 56 20 20 24 37 8 37 -6 0
-8 12 -5 28 6 25 5 25 -8 10 -17 -21 -27 -23 -27 -5 0 7 16 28 35 47 25 24 38
31 46 23 7 -7 17 -4 34 13 28 28 47 30 65 9 7 -8 17 -15 22 -15 6 0 5 7 -2 15
-7 8 -9 23 -6 32 6 14 9 15 15 4 5 -8 14 -10 22 -6 9 6 11 3 6 -8 -9 -24 3
-21 35 9 20 20 25 31 18 43 -11 21 3 45 21 39 15 -6 69 28 69 42 0 5 -7 6 -17
3 -11 -4 -14 -3 -9 6 5 7 14 10 22 7 7 -3 17 1 21 8 5 7 22 16 38 20 29 7 29
7 10 -9 -13 -10 -14 -13 -3 -8 9 4 36 26 60 49 49 46 88 70 88 54 0 -17 28
-11 49 12 17 17 23 19 36 8 13 -11 18 -8 36 14 12 15 26 25 33 23 6 -2 19 0
29 5 16 8 17 7 7 -11 -6 -12 -14 -21 -18 -21 -4 0 -12 -10 -17 -22 -6 -13 -15
-23 -22 -23 -6 0 -15 -4 -20 -9 -5 -5 -2 -6 7 -1 8 4 5 -2 -7 -13 -12 -12 -42
-27 -67 -33 -25 -6 -46 -16 -46 -21 0 -6 8 -7 18 -3 20 9 62 15 62 10 0 -8
-128 -95 -139 -95 -6 0 -11 -4 -11 -8 0 -5 -18 -16 -41 -25 -65 -25 -39 -52
36 -36 15 3 19 -1 17 -14 -4 -23 17 -13 68 33 l35 32 -33 -17 c-19 -9 -36 -14
-38 -12 -5 5 41 35 98 67 31 17 128 108 128 121 0 4 -9 9 -21 11 -19 3 -18 6
15 43 25 28 34 46 30 60 -4 16 -3 17 5 5 6 -8 11 -12 12 -7 1 4 3 12 4 17 1 6
3 22 4 38 2 24 3 25 11 7 8 -18 9 -18 9 -2 1 10 6 15 11 12 6 -3 13 2 17 11 4
12 8 14 11 6 3 -10 7 -10 18 -1z m-31 -754 c43 -43 58 -101 53 -202 -4 -59
-11 -91 -27 -120 -13 -22 -25 -42 -26 -43 -2 -2 -9 7 -16 20 -6 12 -8 20 -4
16 5 -4 14 -3 22 3 11 10 8 14 -13 25 -31 17 -37 17 -29 4 3 -5 -1 -10 -10
-10 -9 0 -14 4 -11 9 3 5 -13 16 -36 26 -47 19 -78 47 -96 88 -6 15 -18 27
-26 27 -8 0 -17 8 -20 18 -9 28 -10 107 -2 120 6 11 -5 17 -26 13 -5 0 -7 5
-5 12 3 18 40 24 146 26 93 1 93 1 126 -32z m-2382 -369 c-13 -6 -23 -15 -23
-20 0 -4 -6 -8 -13 -8 -7 0 -22 -8 -33 -19 -11 -10 -30 -22 -42 -25 -12 -4
-22 -12 -22 -17 0 -5 -7 -9 -15 -9 -8 0 -15 -4 -15 -10 0 -5 -6 -10 -14 -10
-8 0 -24 -8 -36 -18 -20 -16 -21 -20 -7 -25 11 -4 14 -2 10 9 -5 13 1 16 55
18 9 1 26 12 37 26 12 16 27 24 39 22 10 -2 22 0 28 6 15 15 57 1 64 -22 8
-25 87 -102 114 -111 27 -8 37 -45 16 -60 -9 -7 -16 -23 -16 -36 0 -15 -3 -19
-8 -12 -6 9 -23 5 -65 -17 -49 -25 -62 -27 -93 -19 -19 6 -64 11 -100 12 -35
1 -64 5 -64 10 0 4 -20 7 -45 7 -38 0 -44 3 -39 18 5 13 4 14 -4 3 -5 -7 -22
-15 -37 -16 -15 -2 -33 -12 -40 -22 -7 -10 -16 -15 -19 -12 -4 3 18 33 49 65
60 65 72 88 56 108 -12 14 -5 20 142 112 95 59 139 83 152 83 6 0 0 -5 -12
-11z m1043 -13 c27 -8 59 -15 71 -15 14 0 24 -9 32 -30 10 -31 26 -39 33 -18
6 16 54 -35 62 -66 l6 -26 -34 17 c-23 10 -32 21 -29 31 5 11 1 13 -15 8 -14
-5 -30 2 -55 23 -46 41 -116 60 -160 42 -17 -7 -41 -13 -52 -14 -15 -2 -20
-11 -23 -42 -6 -79 8 -139 48 -204 l38 -63 -5 98 c-6 116 7 184 37 184 10 0
22 -9 25 -20 9 -29 50 -53 75 -45 32 10 24 -3 -31 -54 -44 -40 -51 -53 -53
-88 -2 -33 4 -48 30 -79 38 -45 51 -41 34 11 -10 30 -9 40 4 60 19 29 34 32
32 8 -1 -12 5 -17 17 -15 22 4 22 -6 0 -30 -17 -19 -16 -21 22 -54 50 -43 85
-46 85 -6 0 15 -9 38 -20 52 -25 32 -25 88 -1 119 24 32 51 22 51 -19 0 -35 6
-37 33 -13 18 17 19 17 16 -7 -2 -14 -10 -26 -16 -26 -23 -2 -24 -4 -17 -16
10 -16 5 -98 -7 -120 -5 -10 -17 -18 -27 -18 -14 0 -13 -4 6 -18 33 -25 40
-84 14 -110 -31 -31 -104 -39 -153 -16 -36 16 -132 112 -177 175 -25 37 -73
160 -81 212 -12 73 14 170 54 199 16 12 79 9 131 -7z m1701 -340 c14 3 38 3
53 0 22 -5 29 -13 35 -42 4 -21 2 -40 -4 -46 -12 -12 -131 -19 -131 -7 0 8
-92 6 -145 -4 -37 -7 -38 -7 -20 7 11 8 29 17 40 20 39 12 -101 -5 -160 -19
-83 -19 -109 -18 -67 2 17 9 32 20 32 24 0 4 12 15 26 25 24 16 26 16 41 -2
14 -17 14 -17 9 5 -4 19 -1 22 12 16 22 -9 118 -8 159 1 18 4 38 14 44 21 8
10 16 11 31 3 11 -6 31 -8 45 -4z m-2814 -133 c-1 -5 22 -13 52 -17 30 -3 55
-11 55 -16 0 -6 4 -8 9 -4 12 7 33 -29 24 -39 -3 -3 3 -6 15 -6 12 0 23 -8 27
-19 5 -16 20 -21 73 -28 96 -12 321 -6 338 8 8 6 46 14 84 17 39 2 70 9 70 13
0 5 18 9 40 9 28 0 40 4 40 14 0 8 8 17 18 22 21 9 151 21 147 13 -2 -3 9 -20
25 -38 17 -18 30 -38 30 -44 0 -7 18 -32 40 -56 22 -24 43 -54 46 -67 3 -12
12 -25 20 -28 8 -3 14 -12 14 -20 0 -8 25 -31 55 -52 62 -41 65 -45 99 -141
l25 -68 -19 -55 c-11 -30 -19 -63 -20 -73 0 -38 -70 -175 -70 -138 0 6 -14 11
-31 11 -17 0 -28 -4 -24 -10 3 -5 15 -10 26 -10 24 0 24 -12 0 -34 -19 -17
-21 -17 -55 9 -26 20 -43 26 -61 21 -14 -4 -25 -11 -25 -16 0 -6 -7 -10 -15
-10 -8 0 -15 6 -15 14 0 37 -141 127 -237 152 -62 16 -350 17 -359 2 -3 -4 6
-8 20 -8 27 0 136 -26 144 -35 3 -3 2 -8 -2 -12 -4 -4 -10 -3 -14 2 -4 6 -16
10 -27 11 -11 0 -46 6 -77 13 -42 9 -58 17 -59 29 -1 15 -2 15 -6 0 -5 -20
-36 -23 -95 -9 -24 6 -40 5 -47 -2 -8 -8 -11 -6 -11 6 0 18 -125 61 -270 93
-41 9 -81 21 -87 26 -20 16 -175 22 -215 9 -31 -10 -41 -9 -84 13 -55 27 -154
53 -229 60 -27 2 -74 10 -104 16 -62 14 -216 9 -246 -7 -19 -11 -18 -12 10
-24 17 -6 44 -15 60 -19 l30 -8 -30 -1 c-16 0 -49 8 -73 19 -24 11 -61 24 -82
30 l-38 10 61 64 c34 35 91 82 127 106 36 23 79 59 95 81 49 64 187 229 191
229 9 0 -16 -38 -46 -70 -53 -56 -37 -62 179 -56 154 3 187 7 197 20 6 9 25
16 43 16 26 0 31 4 31 25 0 21 6 26 40 31 22 4 40 10 40 15 0 5 22 9 49 9 28
0 53 5 56 11 8 12 31 6 28 -9z m2651 -767 c8 -68 1 -100 -30 -142 -13 -17 -24
-36 -24 -40 0 -21 -63 -68 -93 -70 -18 -1 -56 -3 -85 -5 -35 -2 -52 1 -52 9 0
6 6 14 13 17 6 4 2 4 -10 2 -14 -2 -20 1 -17 9 3 6 -2 17 -10 24 -18 15 -8 29
34 47 25 11 77 55 177 152 73 69 88 68 97 -3z m250 -109 c6 -23 10 -24 88 -25
45 0 86 -5 92 -11 5 -5 20 -10 32 -10 11 0 35 -5 53 -11 26 -9 29 -14 20 -25
-9 -12 -8 -18 7 -29 18 -14 17 -15 -8 -9 -23 5 -28 3 -28 -12 0 -15 -2 -16 -9
-5 -5 7 -27 14 -49 15 -25 0 -36 4 -29 9 7 5 -1 6 -18 3 -18 -4 -25 -3 -17 2
20 13 -16 38 -65 46 -46 7 -53 1 -25 -21 16 -13 15 -14 -5 -8 -18 5 -23 2 -22
-12 1 -24 13 -55 22 -54 20 2 27 0 27 -8 0 -5 -9 -7 -20 -4 -14 4 -20 0 -20
-11 0 -11 9 -16 31 -16 17 0 39 -5 51 -11 l20 -11 -21 -14 c-12 -9 -21 -21
-21 -27 0 -7 -11 -21 -25 -31 -14 -10 -25 -25 -25 -32 0 -19 -15 -18 -34 2
-14 14 -16 14 -16 0 0 -9 11 -18 24 -22 19 -5 24 -14 29 -52 7 -60 -7 -80 -37
-54 -12 11 -29 22 -38 25 -19 7 -25 27 -8 27 6 0 19 -9 30 -20 21 -21 40 -26
40 -11 0 5 -7 14 -15 21 -8 7 -15 16 -15 21 0 5 7 6 15 3 8 -4 15 -1 15 5 0 6
-2 11 -4 11 -2 0 -11 3 -20 6 -11 4 -16 1 -16 -11 0 -14 -3 -15 -15 -5 -8 7
-25 10 -39 6 -29 -7 -46 12 -24 28 25 19 50 64 42 77 -7 12 9 10 49 -6 10 -4
17 -3 17 4 0 6 -7 11 -15 11 -21 0 -19 20 3 21 16 1 16 2 0 6 -19 5 -25 23 -8
23 5 0 7 7 4 15 -4 8 -1 15 6 15 9 0 9 4 2 13 -6 6 -14 30 -18 52 -4 22 -9 34
-11 28 -6 -17 -23 -16 -23 1 0 8 7 17 16 20 12 4 13 10 6 19 -11 13 -5 67 8
67 4 0 11 -11 14 -24z m784 -327 c31 -6 66 -16 77 -22 11 -6 33 -13 49 -15 61
-7 159 -70 290 -184 101 -87 134 -97 41 -12 -87 79 -162 137 -227 174 -32 17
-58 34 -58 36 0 10 72 -27 136 -69 120 -80 304 -265 304 -306 0 -5 27 -64 59
-132 56 -119 121 -293 121 -327 0 -10 6 -35 14 -57 17 -52 27 -127 15 -119 -5
3 -9 14 -9 26 0 11 -12 43 -27 70 -21 38 -24 51 -14 57 10 6 8 12 -6 26 -23
24 -53 91 -53 121 0 12 -5 26 -11 30 -6 3 -18 22 -26 41 -14 35 -28 37 -28 6
0 -9 -5 -18 -12 -20 -8 -3 -12 29 -15 109 -3 102 -6 119 -33 171 -16 32 -39
66 -50 75 -20 17 -20 17 -1 -5 18 -22 18 -23 -14 -75 -18 -29 -33 -54 -35 -56
-1 -1 -15 3 -31 9 -27 10 -27 12 -9 19 11 5 14 9 7 9 -20 1 -39 24 -34 40 2 7
-13 30 -35 50 -22 20 -42 43 -46 51 -4 12 -6 11 -6 -2 -1 -10 -3 -18 -6 -18
-9 0 -41 36 -47 52 -4 10 -15 14 -30 11 -18 -3 -29 5 -51 37 -24 33 -34 40
-62 40 -18 0 -35 4 -37 10 -4 13 -86 -9 -120 -32 -38 -27 -35 -11 7 35 20 22
35 49 35 63 0 13 5 24 12 24 9 0 9 3 -1 13 -10 10 -15 8 -26 -6 -8 -12 -15
-14 -20 -8 -3 6 -19 11 -35 11 -21 0 -33 8 -47 33 -10 17 -17 40 -15 50 3 16
5 16 28 -2 14 -11 51 -25 82 -32z m-683 -476 c37 -6 38 -7 15 -14 -21 -7 -18
-8 15 -8 64 1 75 0 75 -10 0 -10 -34 -25 -60 -26 -34 -2 -136 -17 -150 -22
-38 -15 -85 -10 -102 11 -9 12 -17 23 -18 26 0 7 94 38 130 43 43 7 54 7 95 0z
m-4138 -179 c-50 -26 -90 -20 -137 22 -32 29 -67 84 -54 84 4 0 -3 12 -17 26
-19 21 4 12 112 -42 l136 -68 -40 -22z m4344 -214 c4 -41 6 -82 3 -92 -3 -9 0
-19 6 -23 5 -3 10 -21 10 -39 0 -17 5 -37 11 -43 7 -7 8 -13 0 -17 -19 -12
-51 32 -51 69 0 19 -4 35 -8 35 -13 0 -35 133 -28 169 3 17 9 45 12 62 l7 32
14 -39 c8 -22 19 -73 24 -114z m1382 -77 c6 -13 33 -53 59 -91 52 -76 84 -151
152 -357 84 -256 97 -316 101 -470 3 -92 1 -131 -5 -115 -18 51 3 -194 22
-250 18 -53 48 -172 48 -191 0 -5 -4 -9 -10 -9 -5 0 -10 9 -10 20 0 11 -3 20
-8 20 -4 0 -6 -21 -5 -47 2 -45 1 -44 -17 27 -11 41 -24 122 -29 180 -25 255
-42 389 -56 444 -9 33 -13 66 -11 73 3 7 2 13 -3 13 -4 0 -8 15 -9 33 -1 19
-10 54 -20 78 -20 47 -139 404 -167 504 -9 33 -26 83 -37 110 -12 28 -24 61
-28 75 -5 14 -11 34 -14 45 -3 11 3 0 14 -25 11 -25 26 -55 33 -67z"/>
<path d="M5750 6429 c-70 -10 -151 -45 -158 -68 -3 -9 7 -6 28 9 65 46 221 65
286 34 58 -28 94 -130 94 -264 0 -58 -11 -80 -41 -80 -13 0 -19 -13 -24 -61
-5 -42 -10 -57 -16 -48 -8 11 -12 10 -25 -6 -14 -19 -16 -19 -28 -2 -13 17
-14 17 -21 0 -6 -17 -7 -17 -19 -1 -7 10 -16 15 -19 11 -4 -3 -7 7 -7 22 0 28
1 28 15 9 14 -18 14 -18 15 9 0 27 -10 32 -50 27 -21 -2 -40 -29 -40 -57 0
-25 -10 -29 -28 -11 -6 6 -14 9 -17 6 -3 -3 10 -16 30 -28 32 -20 46 -22 111
-17 51 4 87 13 116 29 59 32 70 78 65 254 -4 142 -15 177 -68 216 -31 23 -110
30 -199 17z"/>
<path d="M6698 9588 c16 -8 22 -20 22 -42 0 -17 8 -51 17 -76 14 -37 17 -92
20 -302 2 -184 -1 -259 -9 -264 -7 -5 -8 -3 -3 7 8 12 6 12 -8 0 -24 -19 -21
-48 6 -63 12 -7 25 -11 30 -10 4 1 7 -5 7 -14 0 -25 24 -42 66 -47 l39 -4 -42
-1 c-54 -2 -57 -22 -3 -22 34 0 41 4 46 25 6 26 29 34 37 13 4 -10 7 -10 18 0
7 6 23 12 36 12 20 0 22 -2 11 -19 -9 -15 -15 -17 -25 -9 -8 6 -17 8 -20 4
-12 -11 17 -24 56 -24 44 -1 91 -18 91 -33 0 -7 12 -9 33 -6 17 2 52 -2 77 -9
25 -8 75 -14 111 -14 36 0 115 -7 175 -16 111 -16 218 -13 299 7 22 5 72 15
110 20 39 6 99 15 135 21 36 5 130 11 210 12 80 2 269 8 420 14 151 6 318 10
370 8 52 -2 125 -4 162 -5 44 -1 72 -6 82 -16 10 -10 35 -15 80 -15 42 0 69
-5 79 -14 13 -13 43 -20 75 -17 6 1 12 7 12 15 0 8 6 16 13 18 9 4 13 103 15
441 l3 437 -1438 -1 c-1042 0 -1432 -3 -1415 -11z"/>
</g>
</svg>
